<?xml version="1.0" standalone="no"?>
<!DOCTYPE svg PUBLIC "-//W3C//DTD SVG 20010904//EN"
 "http://www.w3.org/TR/2001/REC-SVG-20010904/DTD/svg10.dtd">
<svg version="1.0" xmlns="http://www.w3.org/2000/svg"
 width="2000.000000pt" height="2000.000000pt" viewBox="0 0 2000.000000 2000.000000"
 preserveAspectRatio="xMidYMid meet">

<g transform="translate(0.000000,2000.000000) scale(0.100000,-0.100000)"
fill="#000000" stroke="none">
<path d="M10590 13319 c-123 -24 -244 -118 -301 -235 -29 -57 -34 -80 -37
-158 -2 -50 1 -109 7 -131 6 -21 9 -40 8 -42 -2 -1 -73 15 -158 37 -694 177
-1289 223 -1764 135 -220 -41 -396 -102 -583 -204 -104 -56 -132 -83 -132
-131 0 -30 27 -78 51 -91 11 -6 1173 -400 2582 -876 2784 -940 2614 -887 2664
-828 32 36 29 85 -8 192 -122 350 -379 652 -779 920 -288 192 -762 441 -1122
588 l-118 48 36 28 c239 190 196 581 -79 709 -97 46 -174 57 -267 39z m-1400
-580 c553 -49 1275 -239 1865 -491 406 -174 940 -480 1191 -681 153 -124 291
-289 394 -470 24 -44 28 -58 17 -55 -59 12 -4634 1564 -4631 1570 10 16 236
80 364 104 232 42 494 50 800 23z"/>
<path d="M7370 11902 c-19 -19 -30 -44 -35 -73 -3 -24 -5 -278 -3 -564 3 -586
0 -563 79 -587 33 -9 45 -9 75 5 66 32 65 24 62 638 l-3 551 -33 29 c-45 40
-102 41 -142 1z"/>
<path d="M8799 11691 l-29 -29 0 -465 0 -464 26 -26 c34 -35 83 -43 123 -23
62 33 62 29 59 527 l-3 451 -33 29 c-45 41 -102 41 -143 0z"/>
<path d="M8088 11464 c-56 -30 -58 -44 -58 -389 0 -349 2 -360 61 -391 65 -33
143 11 154 89 4 23 5 175 3 337 -3 262 -5 298 -21 321 -32 47 -89 61 -139 33z"/>
<path d="M6743 10179 c-76 -13 -143 -41 -222 -93 -167 -111 -261 -286 -261
-486 0 -168 52 -293 170 -412 l77 -78 327 -160 326 -161 0 -538 c0 -715 13
-854 102 -1131 245 -760 913 -1303 1710 -1389 128 -14 1979 -15 2103 -1 843
94 1534 691 1745 1506 53 208 53 195 57 907 l4 667 309 155 c288 144 314 160
373 219 112 112 171 254 171 416 0 256 -157 470 -414 562 l-65 23 -3230 1
c-1776 1 -3253 -2 -3282 -7z m417 -679 c0 -258 -2 -470 -5 -470 -9 0 -308 141
-427 202 -89 45 -128 71 -161 108 -133 147 -139 345 -15 502 33 42 77 72 157
104 52 22 70 24 254 24 l197 0 0 -470z m5514 -662 c5 -800 4 -1167 -4 -1248
-41 -427 -208 -799 -495 -1099 -260 -271 -580 -449 -965 -533 l-105 -23 -1075
0 -1075 0 -115 24 c-370 76 -682 244 -943 508 -229 231 -387 506 -466 813 -61
232 -61 236 -61 1521 l0 1169 2649 0 2648 0 7 -1132z m596 1116 c100 -30 182
-102 229 -204 22 -47 26 -69 26 -150 0 -87 -3 -101 -32 -161 -51 -104 -102
-143 -330 -257 -109 -55 -215 -107 -236 -115 l-37 -16 0 460 0 459 163 0 c121
0 177 -4 217 -16z"/>
<path d="M12194 8686 c-29 -29 -34 -41 -34 -82 0 -122 120 -176 190 -86 26 33
27 127 2 158 -44 55 -109 59 -158 10z"/>
<path d="M12204 8262 c-42 -34 -44 -49 -44 -365 0 -329 -7 -404 -56 -559 -38
-120 -85 -218 -161 -332 -219 -329 -587 -538 -991 -563 -90 -5 -108 -9 -133
-30 -57 -49 -43 -140 26 -169 40 -16 207 -6 340 21 507 104 936 482 1104 973
65 187 73 253 78 620 5 363 3 381 -48 407 -38 20 -89 18 -115 -3z"/>
</g>
</svg>
